<svg xmlns="http://www.w3.org/2000/svg" viewBox="0 0 208.97 68.28"><defs><style>.cls-1{fill:#fff;}</style></defs><title>Asset 3</title><g id="Layer_2" data-name="Layer 2"><g id="Layer_1-2" data-name="Layer 1"><path class="cls-1" d="M8.81,0,51.39.32l.09.08,8.23,7.5v7.78l-8.54,8H43V38.17L34.3,45.9H26.12v15L17,68.28H0V7.22L8.68,0ZM.58,7.62h42L50.5.87,8.94.52.58,7.42Zm0,60.15H16.77l.31-.28h-.53V45.39H33.9V30.47H16.55v-7.3H50.9l-.13-7.34-8.19-7.7H.58Zm16.6-38.09,7-6h-7Zm0,37.73,8.36-6.71V45.9H17.17ZM17.71,30H34.26l7.34-6.27H25ZM34.48,45,42.4,38V23.77l-7.92,6.7ZM50.85,15.16l8.23-7v0L51.25,1,43.11,7.9Zm.62,7.46,7.61-7.14V8.89l-7.83,6.67.09.08Z"/><path class="cls-1" d="M134.23,0l8.45,8V60.94l-9.08,7.3H116.43l.13-6.27-8.05,6.19,0,.08H91.65L89,63.68l-5.47,4.4v.16H66.2V7.86L75.1,0H92.72l-.31.28L108.78,15,125.37,0ZM100.15,23.53,83.29,8.25H66.78V67.72H83l.31-15.35L92,67.72h16.11l9.25-15.51-.31,15.51H133.2l.44-52.21-8-7.3-8.41-.08ZM67.22,7.7H83.29l8-7.14H75.37ZM83.55,67.37l5.21-4.21-4.94-8.65Zm16.59-44.59,8.19-7.38L92,.67,83.82,8Zm9.17,44.08,7.25-5.59.18-6.86Zm16-59.15L133.56.56h-8l-7.79,7Zm8.59,7.3,7.7-7.22-7.43-7L126,7.82Zm-.13,52.37,8.32-6.67V8.21l0,0-7.83,7.34Z"/><path class="cls-1" d="M166.53,0,175,7.46v.71l.18,36.34,33.81.24V60.34l-8.76,7.58h-51V7.46L157.81,0ZM149.75,67.41h50l-.13-14.56H166.08V15.12l-8.41-7.26h-7.92ZM150.2,7.3h7.7L165.81.56H158Zm16.28,7.38,7.92-6.74V7.7L166.48.75l-8.19,6.9Zm.22,36.9,7.83-6.9-.13-36-7.7,6.55Zm0,.71H200l8.23-7L175,45Zm33.59.52-.09-.08L200.38,67l8-6.9V45.9Z"/></g></g></svg>